<?xml version="1.0" encoding="utf-8"?>
<!-- Generator: Adobe Illustrator 27.5.0, SVG Export Plug-In . SVG Version: 6.00 Build 0)  -->
<svg version="1.1" xmlns="http://www.w3.org/2000/svg" xmlns:xlink="http://www.w3.org/1999/xlink" x="0px" y="0px"
	 viewBox="0 0 500 500" style="enable-background:new 0 0 500 500;" xml:space="preserve">
<g id="BACKGROUND">
	<rect style="fill:#FFEFBF;" width="500" height="500"/>
</g>
<g id="OBJECTS">
	<path style="fill:#FFF8E0;" d="M275.979,337.25c-45.331-2.098-92.133-8.345-129.126-36.829
		c-36.993-28.483-62.965-75.076-63.955-124.258c-0.99-49.182,25.292-99.146,66.946-118.649
		c26.177-12.257,56.296-12.273,83.867-4.394c16.831,4.81,34.353,13.867,41.596,31.027c5.044,11.948,4.566,26.71,12.406,36.73
		c7.389,9.443,20.13,11.711,31.481,10.337c11.351-1.375,22.275-5.702,33.642-6.921c29.218-3.132,58.583,16.128,72.277,44.286
		c13.694,28.158,12.443,63.414-0.436,92.021c-12.879,28.607-36.442,50.671-63.226,63.712
		C334.669,337.353,305.108,338.598,275.979,337.25z"/>
	<g>
		<g>
			<g>
				<rect y="362.614" style="fill:#6BD6D1;" width="500" height="20.561"/>
				<polygon style="fill:#7FE3D7;" points="500,365.777 500,362.614 0,362.614 0,368.94 				"/>
			</g>
			<g>
				<rect y="383.174" style="fill:#FCBA81;" width="500" height="116.839"/>
				<g>
					<defs>
						<rect id="SVGID_1_" y="383.174" width="500" height="116.839"/>
					</defs>
					<clipPath id="SVGID_00000078750381799197607270000008052289822022099874_">
						<use xlink:href="#SVGID_1_"  style="overflow:visible;"/>
					</clipPath>
					<g style="clip-path:url(#SVGID_00000078750381799197607270000008052289822022099874_);">
						
							<linearGradient id="SVGID_00000048479698098912314260000014739863152837667254_" gradientUnits="userSpaceOnUse" x1="64.9878" y1="380.9481" x2="64.9878" y2="471.2422" gradientTransform="matrix(-1 0 0 1 500 0)">
							<stop  offset="0" style="stop-color:#FFD699"/>
							<stop  offset="0.4187" style="stop-color:#FECE92"/>
							<stop  offset="1" style="stop-color:#FCBA81"/>
						</linearGradient>
						
							<rect x="411.012" y="383.174" style="fill:url(#SVGID_00000048479698098912314260000014739863152837667254_);" width="48" height="130.481"/>
						
							<linearGradient id="SVGID_00000074425979885435784640000008301232467442539956_" gradientUnits="userSpaceOnUse" x1="117.4341" y1="381.7143" x2="117.4341" y2="440.935" gradientTransform="matrix(-1 0 0 1 500 0)">
							<stop  offset="0" style="stop-color:#FFD699"/>
							<stop  offset="0.4187" style="stop-color:#FECE92"/>
							<stop  offset="1" style="stop-color:#FCBA81"/>
						</linearGradient>
						
							<rect x="377.566" y="383.174" style="fill:url(#SVGID_00000074425979885435784640000008301232467442539956_);" width="10" height="85.578"/>
						
							<linearGradient id="SVGID_00000030467850079118472100000017601846265732784319_" gradientUnits="userSpaceOnUse" x1="190.0067" y1="380.9481" x2="190.0067" y2="471.2422" gradientTransform="matrix(-1 0 0 1 500 0)">
							<stop  offset="0" style="stop-color:#FFD699"/>
							<stop  offset="0.4187" style="stop-color:#FECE92"/>
							<stop  offset="1" style="stop-color:#FCBA81"/>
						</linearGradient>
						
							<rect x="294.081" y="383.174" style="fill:url(#SVGID_00000030467850079118472100000017601846265732784319_);" width="31.825" height="130.481"/>
						
							<linearGradient id="SVGID_00000078738745804920482690000010272468386130678660_" gradientUnits="userSpaceOnUse" x1="451.2849" y1="380.3004" x2="451.2849" y2="496.8619" gradientTransform="matrix(-1 0 0 1 500 0)">
							<stop  offset="0" style="stop-color:#FFD699"/>
							<stop  offset="0.4187" style="stop-color:#FECE92"/>
							<stop  offset="1" style="stop-color:#FCBA81"/>
						</linearGradient>
						
							<rect x="32.803" y="383.174" style="fill:url(#SVGID_00000078738745804920482690000010272468386130678660_);" width="31.825" height="168.439"/>
						
							<linearGradient id="SVGID_00000148636845511658719580000012884759590200514742_" gradientUnits="userSpaceOnUse" x1="224.7793" y1="381.7143" x2="224.7793" y2="440.935" gradientTransform="matrix(-1 0 0 1 500 0)">
							<stop  offset="0" style="stop-color:#FFD699"/>
							<stop  offset="0.4187" style="stop-color:#FECE92"/>
							<stop  offset="1" style="stop-color:#FCBA81"/>
						</linearGradient>
						
							<rect x="271.906" y="383.174" style="fill:url(#SVGID_00000148636845511658719580000012884759590200514742_);" width="6.63" height="85.578"/>
						
							<linearGradient id="SVGID_00000104686231518657467040000001112096884070800063_" gradientUnits="userSpaceOnUse" x1="322.8539" y1="380.8671" x2="322.8539" y2="474.4447" gradientTransform="matrix(-1 0 0 1 500 0)">
							<stop  offset="0" style="stop-color:#FFD699"/>
							<stop  offset="0.4187" style="stop-color:#FECE92"/>
							<stop  offset="1" style="stop-color:#FCBA81"/>
						</linearGradient>
						
							<rect x="173.831" y="383.174" style="fill:url(#SVGID_00000104686231518657467040000001112096884070800063_);" width="6.63" height="135.226"/>
					</g>
				</g>
				
					<rect y="380.011" transform="matrix(-1 -1.224647e-16 1.224647e-16 -1 500 763.1858)" style="fill:#FFF7F5;" width="500" height="3.163"/>
				<polyline style="fill:#FFF7F5;" points="500,443.511 0,491.402 0,494.565 500,446.674 				"/>
			</g>
		</g>
		<g>
			<defs>
				<rect id="SVGID_00000013160725533851618800000016033720129504363160_" width="500" height="500"/>
			</defs>
			<clipPath id="SVGID_00000061444184112411106360000005830124071291490228_">
				<use xlink:href="#SVGID_00000013160725533851618800000016033720129504363160_"  style="overflow:visible;"/>
			</clipPath>
			<g style="opacity:0.302;clip-path:url(#SVGID_00000061444184112411106360000005830124071291490228_);">
				<g>
					<path style="fill:#54293A;" d="M293.677,591.486c-3.385-2.013-9.263-4.064-14.217-3.533c0.6,1.914,0.835,3.869,0.7,5.814
						C284.597,593.291,288.737,592.575,293.677,591.486z"/>
					<path style="fill:#ED7668;stroke:#54293A;stroke-linecap:round;stroke-linejoin:round;stroke-miterlimit:10;" d="
						M238.865,587.743l46.932-5.407c0.802,4.398,0.879,8.842-0.444,13.122C269.336,596.324,252.854,593.754,238.865,587.743z"/>
				</g>
				<g>
					<g>
						<g>
							<defs>
								<path id="SVGID_00000088849222060465101970000002065836538519974553_" d="M288.453,479.173
									c-4.126-1.288-5.9-3.27-8.076-4.441c-2.682-1.442-6.436-1.877-9.788-1.067c-2.713,8.748-6.127,17.115-10.5,25.298
									c-2.599,4.871-5.549,9.723-6.519,14.802c-0.454,2.325-0.433,4.724,0.196,7.042c0.753,2.736,2.362,5.355,5.106,7.588
									c-2.909,8.331-5.374,15.753-7.829,23.176c11.851-0.724,22.888-1.742,33.924-2.76c1.485-5.245,2.166-10.478,2.857-16.164
									c0.206-1.724-0.113-3.454-0.928-5.11c-0.279-0.564-0.547-1.19-0.877-1.883c-0.536-1.54-1.021-3.122-1.434-4.736
									C280.924,506.809,281.935,490.467,288.453,479.173z"/>
							</defs>
							<use xlink:href="#SVGID_00000088849222060465101970000002065836538519974553_"  style="overflow:visible;fill:#FFB496;"/>
							<clipPath id="SVGID_00000089554505939178630640000008361128465736712344_">
								<use xlink:href="#SVGID_00000088849222060465101970000002065836538519974553_"  style="overflow:visible;"/>
							</clipPath>
							<path style="clip-path:url(#SVGID_00000089554505939178630640000008361128465736712344_);fill:#ED7668;" d="M292.189,544.603
								c-14.092-2.448-28.988-3.249-43.59-2.343c-0.855,3.961-1.709,7.923-2.564,11.884c15.279,0.162,30.557,0.324,45.836,0.486
								C290.827,551.125,289.782,547.621,292.189,544.603z"/>
							
								<use xlink:href="#SVGID_00000088849222060465101970000002065836538519974553_"  style="overflow:visible;fill:none;stroke:#54293A;stroke-linecap:round;stroke-linejoin:round;stroke-miterlimit:10;"/>
						</g>
						<g>
							<path style="fill:#FF665E;stroke:#54293A;stroke-linecap:round;stroke-linejoin:round;stroke-miterlimit:10;" d="
								M270.68,475.443c-2.205-3.005-3.269-6.304-2.904-9.966c0.049-0.494,0.37-0.967,0.885-1.357l0.028-0.021
								c0.938-0.71,2.452-1.055,3.952-0.912c5.23,0.5,10.426,1.322,15.909,2.563c1.319,0.298,2.725,0.452,4.132,0.387
								c8.71-0.406,17.571,0.283,26.02,2.281c1.857,0.439,3.052,1.527,3.018,2.715l-0.001,0.047c-0.037,1.3-1.533,2.439-3.66,2.74
								c-2.705,0.382-5.44,0.659-8.143,0.848c-2.737,0.191-5.391,0.677-7.891,1.367c-4.84,1.337-9.806,2.513-14.866,3.521
								C280.843,477.54,274.527,475.426,270.68,475.443z"/>
							<path style="fill:none;stroke:#54293A;stroke-linecap:round;stroke-linejoin:round;stroke-miterlimit:10;" d="
								M267.749,465.378c7.692,0.388,15.262,1.622,22.54,3.814c10.37-0.427,20.891,0.483,30.626,2.65"/>
						</g>
						<g>
							<defs>
								<path id="SVGID_00000145736555313239258690000000257056871107135879_" d="M288.453,479.173
									c-4.126-1.288-5.9-3.27-8.076-4.441c-2.682-1.442-6.436-1.877-9.788-1.067c-2.713,8.748-6.127,17.115-10.5,25.298
									c-2.599,4.871-5.549,9.723-6.519,14.802c-0.454,2.325-0.433,4.724,0.196,7.042c10.026-0.92,20.35-0.859,30.819,0.11
									C280.924,506.809,281.935,490.467,288.453,479.173z"/>
							</defs>
							<use xlink:href="#SVGID_00000145736555313239258690000000257056871107135879_"  style="overflow:visible;fill:#56648F;"/>
							<clipPath id="SVGID_00000124157916612707080920000012300940557249620637_">
								<use xlink:href="#SVGID_00000145736555313239258690000000257056871107135879_"  style="overflow:visible;"/>
							</clipPath>
							<path style="clip-path:url(#SVGID_00000124157916612707080920000012300940557249620637_);fill:#FFF7F5;" d="M255.621,494.973
								c12.008-0.066,24.033,1.471,34.125,3.774c2.106-8.037,4.212-16.075,6.319-24.112c-10.509-1.487-20.815-3.479-30.787-5.95
								C261.707,477.983,258.137,487.282,255.621,494.973z"/>
							
								<use xlink:href="#SVGID_00000145736555313239258690000000257056871107135879_"  style="overflow:visible;fill:none;stroke:#54293A;stroke-linecap:round;stroke-linejoin:round;stroke-miterlimit:10;"/>
						</g>
					</g>
					<g>
						<g>
							<defs>
								<path id="SVGID_00000178893713165650659480000016028511711987552186_" d="M233.385,550.639
									c-4.074-3.233-6.251-7.134-9.438-10.692c-2.898-3.239-7.045-6.368-12.274-7.57c-1.331-0.301-2.651-0.62-3.909-1.012
									c-4.786-1.478-9.51-3.024-14.172-4.638c-17.462-5.993-34.079-12.864-49.622-20.495c-3.899,1.043-9.2,8.705-1.681,15.52
									l3.249-0.828c4.497,0.57,8.52,2.104,11.831,3.987c3.301,1.883,5.982,4.116,8.654,6.331
									c3.559,2.951,7.179,5.908,11.686,8.361c2.929,1.595,6.281,2.969,9.922,3.877c1.97,0.497,4.023,0.853,6.137,1.031
									c3.992,5.171,7.117,9.465,10.551,13.674C214.603,555.529,223.989,553.081,233.385,550.639z"/>
							</defs>
							<use xlink:href="#SVGID_00000178893713165650659480000016028511711987552186_"  style="overflow:visible;fill:#FFB496;"/>
							<clipPath id="SVGID_00000165198158420835180580000000240696610156794544_">
								<use xlink:href="#SVGID_00000178893713165650659480000016028511711987552186_"  style="overflow:visible;"/>
							</clipPath>
							<path style="clip-path:url(#SVGID_00000165198158420835180580000000240696610156794544_);fill:#ED7668;" d="M232.838,544.372
								c-15.04-0.644-30.409,1.858-42.801,6.969c4.083,3.695,8.166,7.389,12.249,11.084c11.452-5.208,22.904-10.415,34.357-15.623
								C235.232,545.85,233.82,544.898,232.838,544.372z"/>
							
								<use xlink:href="#SVGID_00000178893713165650659480000016028511711987552186_"  style="overflow:visible;fill:none;stroke:#54293A;stroke-linecap:round;stroke-linejoin:round;stroke-miterlimit:10;"/>
						</g>
						<g>
							<path style="fill:#FF665E;stroke:#54293A;stroke-linecap:round;stroke-linejoin:round;stroke-miterlimit:10;" d="
								M145.436,520.345c-2.733,1.929-6.106,3.534-10.112,4.73c-2.243,0.67-4.951,0.302-6.587-0.831
								c-4.226-2.924-6.761-6.778-6.907-11.07c-0.494-0.487-0.973-0.98-1.438-1.48c-5.577-5.996-6.263-13.242-1.397-19.453
								c0.026-0.034,0.053-0.067,0.079-0.101c1.834-0.281,3.738-0.399,5.685-0.281c2.119,0.128,3.877,1.041,4.476,2.257
								c1.038,2.109,2.237,4.198,3.719,6.27c4.488,1.961,8.761,4.098,12.78,6.391c0.977,0.557,1.971,1.154,2.397,1.918
								c0.424,0.76,0.229,1.587,0.031,2.38C147.368,514.242,148.698,518.042,145.436,520.345z"/>
							<path style="fill:none;stroke:#54293A;stroke-linecap:round;stroke-linejoin:round;stroke-miterlimit:10;" d="
								M136.439,524.534c-5.36-3.376-8.759-7.833-9.608-12.441c-5.428-6.001-6.371-13.376-2.533-19.796"/>
						</g>
						<g>
							<defs>
								<path id="SVGID_00000110453377263293140260000016639550060426320805_" d="M193.592,526.727
									c-17.462-5.993-34.079-12.864-49.622-20.495c-3.899,1.043-9.2,8.705-1.681,15.52l3.249-0.828
									c4.497,0.57,8.52,2.104,11.831,3.987c3.301,1.883,5.982,4.116,8.654,6.331c3.559,2.951,7.179,5.908,11.686,8.361
									c2.929,1.595,6.281,2.969,9.922,3.877c-1.021-3.276-1.145-6.711,0.247-9.919
									C188.951,531.083,190.931,528.746,193.592,526.727z"/>
							</defs>
							<use xlink:href="#SVGID_00000110453377263293140260000016639550060426320805_"  style="overflow:visible;fill:#56648F;"/>
							<clipPath id="SVGID_00000060023195875655871210000014810250630765428648_">
								<use xlink:href="#SVGID_00000110453377263293140260000016639550060426320805_"  style="overflow:visible;"/>
							</clipPath>
							<path style="clip-path:url(#SVGID_00000060023195875655871210000014810250630765428648_);fill:#FFF7F5;" d="M171.745,512.849
								c-9.611,5.2-13.374,13.897-8.162,21.462c-11.159-4.661-22.318-9.323-33.477-13.984c1.19-7.72,3.492-15.38,6.874-22.867
								C147.351,503.101,158.318,508.354,171.745,512.849z"/>
							
								<use xlink:href="#SVGID_00000110453377263293140260000016639550060426320805_"  style="overflow:visible;fill:none;stroke:#54293A;stroke-linecap:round;stroke-linejoin:round;stroke-miterlimit:10;"/>
						</g>
					</g>
				</g>
				<g>
					<path style="fill:#54293A;" d="M297.867,641.522c0.641-6.263-2.17-12.634-7.898-17.902c-2.655,2.174-3.706,4.955-3.388,7.635
						c0.318,2.68,1.931,5.265,4.176,7.596c0.716,0.744,1.512,1.476,2.597,2.04C294.439,641.455,295.854,641.839,297.867,641.522z"/>
					<g>
						<defs>
							<path id="SVGID_00000125603199179933410070000005209694723690243714_" d="M359.362,628.356
								c-14.009,4.574-29.519,7.516-45.394,8.609c-10.121,2.066-19.234,3.298-28.461,3.851c-1.991-4.006-2.887-8.203-2.168-12.947
								c8.615-0.827,17.301-1.395,27.392-2.178c14.478-4.058,32.801-1.045,46.6-5.868"/>
						</defs>
						<use xlink:href="#SVGID_00000125603199179933410070000005209694723690243714_"  style="overflow:visible;fill:#FFB496;"/>
						<clipPath id="SVGID_00000178889634542154893090000011507782855773086098_">
							<use xlink:href="#SVGID_00000125603199179933410070000005209694723690243714_"  style="overflow:visible;"/>
						</clipPath>
						<path style="clip-path:url(#SVGID_00000178889634542154893090000011507782855773086098_);fill:#FFCCB0;" d="M304.495,641.696
							c-3.977-1.447-7.05-3.752-8.513-6.385c5.192-0.302,10.31-1.05,15.89-2.157c16.442-1.528,32.884-3.056,49.326-4.585
							c-5.964,5.489-15.05,9.754-25.411,11.93C325.427,642.675,312.619,644.652,304.495,641.696z"/>
						
							<use xlink:href="#SVGID_00000125603199179933410070000005209694723690243714_"  style="overflow:visible;fill:none;stroke:#54293A;stroke-linecap:round;stroke-linejoin:round;stroke-miterlimit:10;"/>
					</g>
					<path style="fill:#FFB496;stroke:#54293A;stroke-linecap:round;stroke-linejoin:round;stroke-miterlimit:10;" d="
						M356.731,621.252c-0.754-1.021-1.323-2.09-1.801-3.328c-0.296-0.767-0.077-1.565,0.511-2.27
						c1.344-1.611,1.931-3.45,1.732-5.255c-0.081-0.741,0.932-1.363,2.179-1.383l0.042-0.001c0.961-0.015,1.823,0.345,2.121,0.889
						c0.263,0.48,0.531,0.974,0.813,1.505c0.317,0.598,0.357,1.251-0.005,1.84c-0.625,1.018-0.654,2.125-0.11,2.89
						c4.834,0.2,9.725-0.089,15.173-1.059c4.204-2.026,9.409-3.305,14.847-3.503c0.906-0.033,1.745,0.286,2.051,0.794l0.012,0.019
						c0.371,0.616-0.16,1.295-1.193,1.521c-3.887,0.85-7.485,2.187-10.47,4.102c4.915-0.397,9.907-0.453,15.122-0.035
						c1.166,0.093,2.033,0.687,1.981,1.386l-0.002,0.025c-0.052,0.712-1.031,1.276-2.23,1.28c-4.713,0.013-9.428,0.365-14.051,1.275
						c4.74,0.732,9.364,1.731,13.949,3.13c0.771,0.236,1.186,0.752,1.03,1.259l-0.006,0.02c-0.205,0.663-1.304,1.098-2.404,0.936
						c-4.475-0.659-9.039-1.049-13.489-1.095c3.162,1.255,6.324,2.511,9.509,3.888c0.841,0.363,1.053,1.061,0.486,1.579
						l-0.008,0.007c-0.582,0.533-1.769,0.684-2.681,0.352c-3.289-1.194-6.74-2.265-10.503-3.23
						c-6.969-0.429-13.995-0.524-20.99-0.284"/>
				</g>
				<g>
					<path style="fill:#56648F;stroke:#54293A;stroke-linecap:round;stroke-linejoin:round;stroke-miterlimit:10;" d="
						M241.401,589.344c15.782-0.394,30.713-1.419,47.225-4.281c0.289-1.678-0.12-4.211-1.228-5.779l-54.923,5.898L241.401,589.344z"
						/>
					<g>
						<g>
							<defs>
								<path id="SVGID_00000031205615065417305310000016349528263509567400_" d="M291.705,545.686
									c-15.369-1.092-31.238,0.427-45.256,4.331c-2.061-2.007-3.963-3.916-5.865-5.824c-15.842,1.805-30.129,5.689-41.979,11.383
									c3.777,10.809,10.313,21.002,18.388,30.745c23.343,0.688,47.037-1.184,71.43-5.852c-0.028-3.938-0.057-7.875,0.026-12.212
									C289.605,561.009,290.762,553.761,291.705,545.686z"/>
							</defs>
							<use xlink:href="#SVGID_00000031205615065417305310000016349528263509567400_"  style="overflow:visible;fill:#237FC4;"/>
							<clipPath id="SVGID_00000054970350637737457470000011966098986870582708_">
								<use xlink:href="#SVGID_00000031205615065417305310000016349528263509567400_"  style="overflow:visible;"/>
							</clipPath>
							<g style="clip-path:url(#SVGID_00000054970350637737457470000011966098986870582708_);">
								<path style="fill:#FFC336;" d="M295.197,549.294c-15.572-1.363-31.78-0.045-46.165,3.754
									c-1.33-1.627-2.659-3.254-3.989-4.881c13.796-4.451,29.58-6.661,45.272-6.477c0.792,0.009,1.687,0.053,2.189,0.417
									c0.377,0.274,0.421,0.654,0.448,1.008C293.134,545.471,293.317,547.826,295.197,549.294z"/>
								<path style="fill:#FFC336;" d="M242.016,541.486c1.582,1.882,3.163,3.764,4.655,5.824
									c-17.501,2.323-34.153,6.884-48.497,13.284c-0.729-2.163-2.389-4.212-4.779-5.899c5.572-4.167,13.333-7.154,21.584-9.219
									C223.229,543.411,232.01,542.213,242.016,541.486z"/>
							</g>
							<path style="clip-path:url(#SVGID_00000054970350637737457470000011966098986870582708_);fill:#289DD4;" d="M248.336,586.48
								c5.334-1.167,10.501-2.603,16.265-4.614c4.322-1.508,6.746-4.373,6.306-7.342c-0.059-0.397-0.113-0.797-0.16-1.201
								c-8.655-3.195-18.307-5.431-28.315-6.559c12.596-0.604,25.372,0.143,38.939,1.635c2.01-4.405,2.303-9.083,0.849-13.565
								c5.769-0.732,10.404-3.907,10.813-7.407c2.098,10.572,3.229,21.212,3.387,31.857c0.012,0.814-0.009,1.684-0.778,2.357
								c-0.76,0.665-2.093,0.998-3.359,1.281C278.366,586.035,263.331,587.365,248.336,586.48z"/>
							
								<use xlink:href="#SVGID_00000031205615065417305310000016349528263509567400_"  style="overflow:visible;fill:none;stroke:#54293A;stroke-linecap:round;stroke-linejoin:round;stroke-miterlimit:10;"/>
						</g>
						<path style="fill:none;stroke:#54293A;stroke-linecap:round;stroke-linejoin:round;stroke-miterlimit:10;" d="
							M246.325,549.896c2.55,2.789,4.122,5.111,6.472,7.458c10.404,2.706,19.985,6.528,28.143,11.226"/>
						<path style="fill:none;stroke:#54293A;stroke-linecap:round;stroke-linejoin:round;stroke-miterlimit:10;" d="
							M262.486,554.482c4.359-0.475,8.846-0.534,13.236-0.174"/>
						<path style="fill:none;stroke:#54293A;stroke-linecap:round;stroke-linejoin:round;stroke-miterlimit:10;" d="
							M267.311,571.854c-12.865-3.996-27.394-6.082-41.908-6.014"/>
					</g>
				</g>
				<g>
					<path style="fill:#54293A;" d="M165.456,625.28c-1.417-2.285-1.287-4.942,0.932-7.048c3.186,0.596,6.24,1.9,7.972,3.599
						C171.426,623.033,168.41,624.165,165.456,625.28z"/>
					<g>
						<g>
							<defs>
								<path id="SVGID_00000087391049002199583960000002773762952671934906_" d="M175.501,620.109c0,0-33.522,10.468-39.966,12.725
									c-7.676,2.689-12.202,7.605-10.093,10.324c2.109,2.719,31.59,11.069,49.151,12.005l5.248-5.462
									c0,0-12.193-4.763-19.68-8.464l20.892-4.502C181.052,636.736,186.511,626.657,175.501,620.109z"/>
							</defs>
							<use xlink:href="#SVGID_00000087391049002199583960000002773762952671934906_"  style="overflow:visible;fill:#FFB496;"/>
							<clipPath id="SVGID_00000055665756334678660140000012602638152893572241_">
								<use xlink:href="#SVGID_00000087391049002199583960000002773762952671934906_"  style="overflow:visible;"/>
							</clipPath>
							<path style="clip-path:url(#SVGID_00000055665756334678660140000012602638152893572241_);fill:#FFCCB0;" d="M181.374,631.942
								c-11.945,3.135-25.685,6.163-38.224,9.262c-3.56,0.88-4.196,3.712-1.157,5.122c4.485,2.082,9.651,3.966,14.206,5.247
								c1.989,0.559,4.146,1.019,6.34,0.921c2.194-0.098,4.424-0.877,5.089-2.125c-4.44-2.157-8.621-5.817-13.233-8.288
								c7.372-1.082,14.244-1.244,20.884-3.435c0.972-0.321,1.95-0.66,2.711-1.142C180.281,636.053,180.015,633.789,181.374,631.942
								z"/>
							
								<use xlink:href="#SVGID_00000087391049002199583960000002773762952671934906_"  style="overflow:visible;fill:none;stroke:#54293A;stroke-linecap:round;stroke-linejoin:round;stroke-miterlimit:10;"/>
						</g>
						<path style="fill:none;stroke:#54293A;stroke-linecap:round;stroke-linejoin:round;stroke-miterlimit:10;" d="M150.084,643.32
							c3.696-0.767,7.392-1.534,11.088-2.3"/>
					</g>
				</g>
				<g>
					<g>
						<defs>
							<path id="SVGID_00000121253364133854726840000008870410801249665725_" d="M293.279,591.683
								c-13.064,2.357-30.22-0.482-43.148-3.09c-12.928-2.609-26.187-5.653-39.78-4.903c0.954,3.756,2.494,7.427,4.035,11.099
								c-1.847,1.606-2.016,3.654-0.288,4.938c-3.334,3.814-6.344,7.589-8.952,11.461c-14.171,1.833-26.531,4.172-38.363,7.234
								c10.65,4.552,13.704,16.855,7.423,19.791c5.38,1.277,15.926-1.293,23.841-2.558c3.654,1.681,7.419,2.244,11.155,2.391
								c3.736,0.147,7.481-0.098,11.202-0.343c10.178,3.635,21.874,6.374,34.623,8.228c5.34,0.776,10.982,0.236,15.683-1.458
								c0.164-0.059,0.329-0.119,0.496-0.181c8.915-0.304,17.766-1.268,26.197-2.665c-6.209-4.863-9.176-11.151-7.691-17.881
								c-2.897-0.877-6.016-1.495-9.08-2.171C287.852,612.062,292.512,602.843,293.279,591.683z"/>
						</defs>
						<use xlink:href="#SVGID_00000121253364133854726840000008870410801249665725_"  style="overflow:visible;fill:#FFC336;"/>
						<clipPath id="SVGID_00000093160708070127871780000001314781320935703711_">
							<use xlink:href="#SVGID_00000121253364133854726840000008870410801249665725_"  style="overflow:visible;"/>
						</clipPath>
						<path style="clip-path:url(#SVGID_00000093160708070127871780000001314781320935703711_);fill:#FFDD61;" d="M176.046,639.601
							c8.112-3.569,14.089-8.819,16.648-14.624c2.069,2.632,3.001,5.577,2.684,8.476c3.699-0.094,6.806-1.855,8.265-3.879
							c1.459-2.024,1.594-4.285,1.707-6.485c2.778,3.79,3.939,7.995,3.953,12.463c16.461,1.172,33.724-3.398,43.066-11.911
							c-4.858-8.1-13.998-15.271-25.799-20.241c12.594,3.471,24.17,8.245,34.107,14.21c12.633-7.31,20.803-17.291,23.025-28.441
							c4.888,0.203,9.863-0.394,14.235-1.71c0.551,10.381-0.741,20.797-4.568,31.365c-3.653,1.022-7.614,1.652-12.106,2.008
							c-4.116,5.328-9.202,10.39-15.142,15.069c2.704-0.328,5.254-1.095,7.301-2.196c-0.627,1.75-1.253,3.5-1.88,5.25
							c9.647,0.673,19.7-1.019,27.325-4.597c2.188,3.109,4.376,6.218,6.563,9.327c-11.333,3.617-24.226,5.263-37.07,5.663
							c-12.844,0.401-25.708-0.401-38.451-1.44C209.508,646.245,188.836,643.887,176.046,639.601z"/>
						<g style="clip-path:url(#SVGID_00000093160708070127871780000001314781320935703711_);">
							<path style="fill:#237FC4;" d="M206.374,615.198c0.217,2.724-0.585,4.68-0.06,6.074c13.185-0.592,25.869-4.456,34.263-10.865
								c-1.282-2.943,0.938-6.306,5.474-8.429c2.566-5.556,3.501-11.376,1.772-16.796c-2.661-0.393-5.321-0.785-7.917-1.173
								c1.027,5.241,0.612,10.58-1.395,15.858c-3.744,1.352-5.842,4.15-5.176,6.621
								C224.682,612.415,212.466,614.924,206.374,615.198z"/>
							<path style="fill:#237FC4;" d="M203.849,607.818c0.798,2.04,1.596,4.08,2.115,5.855c9.418-0.993,18.108-4.244,23.773-8.95
								c-0.835-0.922-0.939-2.067-0.277-3.038c0.662-0.971,2.079-1.748,3.875-2.058c2.354-5.307,2.453-10.963-0.235-16.35
								c-2.592-0.127-5.184-0.254-7.777-0.381c1.974,5.24,3.929,10.788,0.727,15.694c-1.337,0.228-2.467,0.849-2.953,1.624
								c-0.486,0.775-0.316,1.685,0.432,2.193c-5.357,3.838-13.136,6.452-21.428,7.199
								C203.036,608.854,203.971,608.102,203.849,607.818z"/>
						</g>
						
							<use xlink:href="#SVGID_00000121253364133854726840000008870410801249665725_"  style="overflow:visible;fill:none;stroke:#54293A;stroke-linecap:round;stroke-linejoin:round;stroke-miterlimit:10;"/>
					</g>
					<g>
						<path style="fill:none;stroke:#54293A;stroke-linecap:round;stroke-linejoin:round;stroke-miterlimit:10;" d="
							M201.151,632.758c4.389-6.324,6.095-13.299,4.917-20.105"/>
						<path style="fill:none;stroke:#54293A;stroke-linecap:round;stroke-linejoin:round;stroke-miterlimit:10;" d="
							M188.028,630.523c3.212-3.431,5.45-7.185,6.588-11.053"/>
						<path style="fill:none;stroke:#54293A;stroke-linecap:round;stroke-linejoin:round;stroke-miterlimit:10;" d="
							M259.581,641.076c8.107-6.189,15.255-12.821,21.326-19.786"/>
						<path style="fill:none;stroke:#54293A;stroke-linecap:round;stroke-linejoin:round;stroke-miterlimit:10;" d="
							M265.922,642.881c5.429-4.04,8.459-9.198,8.441-14.37"/>
						<path style="fill:none;stroke:#54293A;stroke-linecap:round;stroke-linejoin:round;stroke-miterlimit:10;" d="
							M278.268,634.442c1.271-2.249,1.262-4.746-0.026-6.991"/>
						<path style="fill:none;stroke:#54293A;stroke-linecap:round;stroke-linejoin:round;stroke-miterlimit:10;" d="
							M221.166,601.866c10.659,2.88,19.653,7.924,25.158,14.109"/>
						<path style="fill:none;stroke:#54293A;stroke-linecap:round;stroke-linejoin:round;stroke-miterlimit:10;" d="M223.165,598.29
							c4.128,0.598,8.256,1.196,12.385,1.794"/>
					</g>
					<g>
						<g>
							<path style="fill:#237FC4;" d="M255.281,623.783c-1.685,2.899-4.544,5.554-8.267,7.677c-2.149-0.201-3.668-0.5-5.235-0.988
								c4.015-2.338,7.121-5.225,9.122-8.315C252.291,622.706,253.681,623.254,255.281,623.783z"/>
							<path style="fill:#237FC4;" d="M257.283,624.533c-3.033-0.822-6.066-1.644-9.088-2.669c0.495-0.582,1.505-1.619,1.822-2.207
								c2.942,0.718,5.884,1.437,8.826,2.155C258.539,622.755,258.013,623.674,257.283,624.533z"/>
							<path style="fill:#237FC4;" d="M241.774,630.476c0.025-0.552-0.053-1.106-0.231-1.647c0.57-0.529,1.141-1.058,1.711-1.587
								c0.955,0.44,2.087,0.711,3.246,0.777C245.986,629.385,244.027,630.451,241.774,630.476z"/>
						</g>
						<path style="fill:#237FC4;" d="M270.291,626.621c-1.377,2.559-3.605,4.826-6.508,6.7c-1.033,0.662-2.594,0.934-4.069,0.731
							c-1.182-0.158-2.3-0.392-3.356-0.702c-1.953-0.567-2.778-1.959-1.992-3.163c1.41-2.197,3.203-4.293,5.044-6.108
							c0.92-0.913,2.681-1.391,4.445-1.206c1.306,0.138,2.578,0.339,3.785,0.6C269.8,623.932,270.992,625.321,270.291,626.621z
							 M264.451,626.447c-0.491-0.104-0.999-0.185-1.536-0.242c-0.712-0.076-1.426,0.118-1.79,0.484
							c-0.747,0.737-1.478,1.582-2.051,2.471c-0.308,0.491,0.018,1.053,0.808,1.283c0.434,0.123,0.885,0.216,1.364,0.28
							c0.596,0.084,1.228-0.028,1.637-0.296c1.182-0.758,2.082-1.671,2.636-2.708C265.805,627.194,265.324,626.635,264.451,626.447z
							"/>
					</g>
				</g>
				<g>
					<path style="fill:#FFB496;stroke:#54293A;stroke-linecap:round;stroke-linejoin:round;stroke-miterlimit:10;" d="
						M225.883,643.813c0.852-1.085,2.004-2.086,3.398-2.95c3.89,0.477,7.513,0.858,11.137,1.239c0.413-1.471-0.78-2.935-2.597-3.854
						c-1.817-0.919-4.162-1.379-6.49-1.688c-7.737-1.028-14.257,1.231-22.93,1.446c0.307,1.455,0.032,2.858-0.822,4.234
						C213.702,642.672,219.826,643.104,225.883,643.813z"/>
					<path style="fill:#ED7668;" d="M226.972,643.53c-1.563-2.147-4.092-4.042-7.329-5.406c-4.278,0.422-8.333,1.611-11.502,3.371
						C214.364,642.298,220.588,643.1,226.972,643.53z"/>
				</g>
				<g>
					<path style="fill:#644C75;stroke:#54293A;stroke-linecap:round;stroke-linejoin:round;stroke-miterlimit:10;" d="
						M231.439,664.779c1.219,2.814,0.537,5.903-1.862,8.435c1.015,1.356,1.656,2.594,1.659,3.966
						c-4.855,1.996-11.064,2.789-16.868,2.152"/>
					<path style="fill:#FFB496;stroke:#54293A;stroke-linecap:round;stroke-linejoin:round;stroke-miterlimit:10;" d="
						M232.963,658.17c0.61,1.07,2.027,1.987,3.825,2.355c1.797,0.367,3.938,0.139,5.313-0.641c1.184-0.672,1.72-1.666,1.83-2.637
						c0.174-1.544-0.654-3.12-2.274-4.331c-1.621-1.21-4.018-2.043-6.587-2.288"/>
					<g>
						<defs>
							<path id="SVGID_00000090284356318359715020000017239339031973389463_" d="M184.308,646.986
								c-8.376,3.452-13.53,9.505-13.25,15.563c0.279,6.058,5.983,11.935,14.664,15.108c8.681,3.174,20.072,3.547,29.287,0.959
								c9.214-2.588,15.968-8.056,17.959-14.337c5.324-2.905,6.59-7.799,4.599-11.929c-1.334-2.768-3.422-5.115-6.483-7.304
								c-3.235-2.313-7.904-3.706-12.946-3.952C206.292,640.518,194.331,642.856,184.308,646.986z"/>
						</defs>
						<use xlink:href="#SVGID_00000090284356318359715020000017239339031973389463_"  style="overflow:visible;fill:#FFB496;"/>
						<clipPath id="SVGID_00000107581921537080407120000004641833555267642001_">
							<use xlink:href="#SVGID_00000090284356318359715020000017239339031973389463_"  style="overflow:visible;"/>
						</clipPath>
						<g style="clip-path:url(#SVGID_00000107581921537080407120000004641833555267642001_);">
							<path style="fill:#FFCCB0;" d="M183.79,674.289c11.736,1.636,24.299,1.102,35.375-1.604c3.315-0.622,6.397-1.681,9.165-3.168
								c1.679-1.493,2.734-3.232,3.174-5.237c-1.875-0.422-3.621-1.045-5.128-1.831c4.39-0.757,7.676-3.08,9.138-5.656
								c1.462-2.576,1.326-5.38,0.659-8.07c3.153,2.855,4.6,6.313,4.559,9.728c-0.041,3.415-1.521,6.791-3.835,9.916
								c-2.546,3.439-6.228,6.681-11.443,8.8c-6.352,2.581-14.531,3.271-22.119,2.514S188.693,676.825,183.79,674.289z"/>
							<path style="fill:#FFCCB0;" d="M208.738,660.338c-3.544-0.19-6.972-1.077-9.622-2.49c4.027-0.628,7.773-1.884,10.763-3.607
								c0.553,1.03,1.112,2.075,1.19,3.155C211.147,658.476,210.689,659.614,208.738,660.338z"/>
						</g>
						
							<use xlink:href="#SVGID_00000090284356318359715020000017239339031973389463_"  style="overflow:visible;fill:none;stroke:#54293A;stroke-linecap:round;stroke-linejoin:round;stroke-miterlimit:10;"/>
					</g>
					<g>
						<defs>
							<path id="SVGID_00000010290891120535583960000008423715913835821220_" d="M219.309,677.635
								c-7.489,1.268-15.614,1.173-23.013-0.271c-7.399-1.443-14.041-4.229-18.812-7.889c5.649-6.145,8.223-13.159,7.442-20.165
								c-2.471-0.559-4.943-1.118-7.714-1.752c-3.19,1.861-6.4,3.735-8.962,5.912c-2.562,2.177-4.466,4.699-4.721,7.352
								c-0.255,2.653,1.311,5.44,4.899,7.357c-2.08,1.227-2.268,3.248-1.3,4.892c0.969,1.644,2.883,3.019,4.649,4.409
								c1.766,1.39,3.465,2.902,3.876,4.627c0.181,0.758,0.104,1.532,0.318,2.287c0.213,0.755,0.788,1.529,1.901,1.912
								c1.444,0.497,3.395,0.158,4.539-0.565c1.143-0.722,1.618-1.733,2.212-3.038c3.368,3.529,9.568,6.051,16.32,6.638
								c1.272,0.111,2.733,0.121,3.649-0.416c0.717-0.42,0.895-1.085,0.704-1.673c-0.192-0.588-0.699-1.12-0.816-1.561
								c1.916,0.447,3.337,1.419,4.543,2.41c1.207,0.991,2.308,2.056,3.9,2.831c1.592,0.776,3.842,1.218,5.738,0.742
								c1.873-0.47,2.893-1.681,3.414-2.85c0.98-2.198,0.725-4.583-0.425-6.902c1.71,0.799,4.262,0.788,6.133,0.13
								c1.872-0.658,3.079-1.869,3.497-3.138c0.419-1.269,0.115-2.59-0.513-3.828"/>
						</defs>
						<use xlink:href="#SVGID_00000010290891120535583960000008423715913835821220_"  style="overflow:visible;fill:#644C75;"/>
						<clipPath id="SVGID_00000036218625623237127260000012758619805105716140_">
							<use xlink:href="#SVGID_00000010290891120535583960000008423715913835821220_"  style="overflow:visible;"/>
						</clipPath>
						<path style="clip-path:url(#SVGID_00000036218625623237127260000012758619805105716140_);fill:#8C609E;" d="M164.791,669.823
							c4.06,2.795,8.119,5.591,12.179,8.386c0.863,0.594,1.847,1.229,3.156,1.329c1.309,0.1,2.779-0.723,2.156-1.415
							c2.258,1.801,5.186,3.304,8.513,4.369c1.571,0.503,3.43,0.914,5.105,0.55c1.675-0.365,2.591-1.86,1.191-2.518
							c4.661,1.023,8.924,2.682,12.367,4.813c1.015,0.628,2.041,1.328,3.453,1.56c2.387,0.392,4.889-0.836,5.428-2.274
							c0.538-1.438-0.421-2.934-1.755-4.175c3.139,0.435,6.457,0.718,9.558,0.195c3.101-0.523,5.923-2.033,6.236-3.941
							c2.995,3.803,1.658,8.536-2.589,11.89c-4.247,3.354-11.051,5.379-18.045,5.955c-6.994,0.576-14.16-0.199-20.781-1.658
							c-8.171-1.801-15.82-4.725-20.986-8.899S162.372,674.305,164.791,669.823z"/>
						
							<use xlink:href="#SVGID_00000010290891120535583960000008423715913835821220_"  style="overflow:visible;fill:none;stroke:#54293A;stroke-linecap:round;stroke-linejoin:round;stroke-miterlimit:10;"/>
					</g>
					<path style="fill:#FFB496;stroke:#54293A;stroke-linecap:round;stroke-linejoin:round;stroke-miterlimit:10;" d="
						M185.809,650.396c-3.008,0.488-6.451,0.224-8.853-0.957c-2.402-1.181-3.467-3.343-2.078-5.003
						c1.264-1.511,4.22-2.327,7.057-2.354c3.634-0.036,7.241,1.107,9.219,2.921"/>
					<g>
						<path style="fill:#644C75;stroke:#54293A;stroke-linecap:round;stroke-linejoin:round;stroke-miterlimit:10;" d="
							M201.333,668.896c-3.204,1.515-7.518,2.126-11.423,1.787c-2.698-0.234-4.952-1.418-5.609-2.989
							c-0.075-0.179-0.139-0.36-0.191-0.542C189.304,669.14,195.867,669.821,201.333,668.896z"/>
						<path style="fill:#644C75;stroke:#54293A;stroke-linecap:round;stroke-linejoin:round;stroke-miterlimit:10;" d="
							M226.46,674.154c-1.222,1.176-3.97,1.473-5.899,0.701c-0.677-0.271-1.287-0.607-1.803-0.981
							c-1.249-0.906-2.001-2.018-2.628-3.169c2.889,1.655,6.749,2.698,10.745,2.904C226.78,673.798,226.641,673.98,226.46,674.154z"
							/>
						<path style="fill:none;stroke:#54293A;stroke-linecap:round;stroke-linejoin:round;stroke-miterlimit:10;" d="
							M192.085,657.407c-1.815,1.745-1.776,4.11,0.097,5.833c1.872,1.723,5.483,2.715,8.903,2.447"/>
						<path style="fill:none;stroke:#54293A;stroke-linecap:round;stroke-linejoin:round;stroke-miterlimit:10;" d="
							M219.957,667.111c1.013,1.191,3.092,2.037,5.326,2.168c2.234,0.131,4.55-0.458,5.935-1.508"/>
						<g>
							<path style="fill:#54293A;" d="M197.425,661.839c-0.592,1.378,0.807,2.78,3.124,3.132c2.317,0.352,4.675-0.48,5.266-1.858
								c0.592-1.378-0.807-2.78-3.124-3.132C200.375,659.629,198.017,660.461,197.425,661.839z"/>
							<path style="fill:#FFFFFF;" d="M198.279,662.983c-0.226,0.526,0.308,1.061,1.192,1.195c0.884,0.134,1.784-0.183,2.01-0.709
								c0.226-0.526-0.308-1.061-1.192-1.195C199.405,662.139,198.505,662.457,198.279,662.983z"/>
						</g>
						<g>
							<path style="fill:#54293A;" d="M220.873,665.039c-0.592,1.378,0.693,2.763,2.869,3.093c2.176,0.331,4.42-0.519,5.012-1.897
								c0.592-1.378-0.693-2.763-2.869-3.093C223.709,662.812,221.465,663.661,220.873,665.039z"/>
							<path style="fill:#FFFFFF;" d="M221.65,666.171c-0.226,0.526,0.264,1.055,1.095,1.181c0.831,0.126,1.687-0.198,1.913-0.724
								c0.226-0.526-0.264-1.054-1.095-1.181C222.733,665.321,221.876,665.646,221.65,666.171z"/>
						</g>
						<path style="fill:#DB424C;stroke:#54293A;stroke-linecap:round;stroke-linejoin:round;stroke-miterlimit:10;" d="
							M218.033,654.999c0.714,1.033,2.379,1.787,4.213,2.028c1.201,0.158,2.532,0.1,3.551-0.309s1.623-1.218,1.209-1.907
							C223.935,654.862,220.863,654.913,218.033,654.999z"/>
						
							<path style="fill:none;stroke:#ED7668;stroke-width:1.0926;stroke-linecap:round;stroke-linejoin:round;stroke-miterlimit:10;" d="
							M217.117,663.143c1.261,0.023,2.523,0.047,3.946-0.099c0.762-0.944,0.928-2.053,0.459-3.062"/>
					</g>
				</g>
			</g>
		</g>
	</g>
	<g>
		<g>
			<path style="fill:#54293A;" d="M292.538,248.052c-3.277,3.277-8.969,6.617-13.766,5.752c0.581-3.117,0.809-6.299,0.678-9.466
				C283.746,245.112,287.754,246.278,292.538,248.052z"/>
			<path style="fill:#ED7668;stroke:#54293A;stroke-linecap:round;stroke-linejoin:round;stroke-miterlimit:10;" d="
				M239.463,254.145l45.444,8.804c0.777-7.16,0.851-14.395-0.43-21.364C268.968,240.174,253.009,244.359,239.463,254.145z"/>
		</g>
		<g>
			<g>
				<g>
					<defs>
						<path id="SVGID_00000018953310425640715230000007150761649229156743_" d="M287.48,430.908
							c-3.995,2.097-5.713,5.323-7.82,7.231c-2.597,2.347-6.232,3.056-9.478,1.738c-2.627-14.242-5.933-27.865-10.167-41.188
							c-2.517-7.93-5.373-15.83-6.312-24.1c-0.439-3.785-0.419-7.69,0.19-11.466c0.729-4.454,2.287-8.719,4.944-12.355
							c-2.816-13.563-5.203-25.648-7.581-37.733c11.476,1.178,22.162,2.836,32.849,4.494c1.438,8.539,2.097,17.059,2.767,26.317
							c0.2,2.806-0.11,5.623-0.899,8.32c-0.27,0.919-0.529,1.938-0.849,3.066c-0.519,2.507-0.989,5.084-1.388,7.71
							C280.189,385.914,281.168,412.521,287.48,430.908z"/>
					</defs>
					<use xlink:href="#SVGID_00000018953310425640715230000007150761649229156743_"  style="overflow:visible;fill:#FFB496;"/>
					<clipPath id="SVGID_00000016789013415279723690000008032535716263460507_">
						<use xlink:href="#SVGID_00000018953310425640715230000007150761649229156743_"  style="overflow:visible;"/>
					</clipPath>
					<path style="clip-path:url(#SVGID_00000016789013415279723690000008032535716263460507_);fill:#ED7668;" d="M291.097,324.381
						c-13.646,3.986-28.069,5.29-42.208,3.815c-0.828-6.449-1.655-12.899-2.483-19.348c14.794-0.264,29.589-0.528,44.384-0.791
						C289.778,313.762,288.766,319.468,291.097,324.381z"/>
					
						<use xlink:href="#SVGID_00000018953310425640715230000007150761649229156743_"  style="overflow:visible;fill:none;stroke:#54293A;stroke-linecap:round;stroke-linejoin:round;stroke-miterlimit:10;"/>
				</g>
				<g>
					<path style="fill:#FF665E;stroke:#54293A;stroke-linecap:round;stroke-linejoin:round;stroke-miterlimit:10;" d="
						M270.269,436.981c-2.135,4.893-3.165,10.264-2.812,16.226c0.048,0.805,0.359,1.575,0.857,2.209l0.027,0.035
						c0.909,1.156,2.375,1.718,3.827,1.484c5.065-0.814,10.096-2.153,15.405-4.172c1.277-0.486,2.639-0.736,4.001-0.629
						c8.434,0.661,17.014-0.461,25.196-3.714c1.798-0.715,2.956-2.486,2.923-4.42l-0.001-0.076c-0.036-2.117-1.484-3.972-3.544-4.46
						c-2.62-0.621-5.268-1.072-7.885-1.38c-2.651-0.312-5.221-1.102-7.641-2.226c-4.687-2.176-9.495-4.091-14.395-5.732
						C280.111,433.568,273.995,437.01,270.269,436.981z"/>
					<path style="fill:none;stroke:#54293A;stroke-linecap:round;stroke-linejoin:round;stroke-miterlimit:10;" d="M267.432,453.368
						c7.448-0.632,14.778-2.641,21.826-6.21c10.042,0.696,20.229-0.786,29.656-4.314"/>
				</g>
				<g>
					<defs>
						<path id="SVGID_00000070095300714288595230000009584887753909992609_" d="M287.48,430.908
							c-3.995,2.097-5.713,5.323-7.82,7.231c-2.597,2.347-6.232,3.056-9.478,1.738c-2.627-14.242-5.933-27.865-10.167-41.188
							c-2.517-7.93-5.373-15.83-6.312-24.1c-0.439-3.785-0.419-7.69,0.19-11.466c9.708,1.498,19.705,1.398,29.843-0.18
							C280.189,385.914,281.168,412.521,287.48,430.908z"/>
					</defs>
					<use xlink:href="#SVGID_00000070095300714288595230000009584887753909992609_"  style="overflow:visible;fill:#56648F;"/>
					<clipPath id="SVGID_00000101076542806043091490000002324794462721841830_">
						<use xlink:href="#SVGID_00000070095300714288595230000009584887753909992609_"  style="overflow:visible;"/>
					</clipPath>
					<path style="clip-path:url(#SVGID_00000101076542806043091490000002324794462721841830_);fill:#FFF7F5;" d="M255.688,405.184
						c11.627,0.107,23.271-2.396,33.044-6.144c2.039,13.086,4.079,26.172,6.118,39.258c-10.176,2.422-20.156,5.665-29.811,9.687
						C261.581,432.846,258.124,417.707,255.688,405.184z"/>
					
						<use xlink:href="#SVGID_00000070095300714288595230000009584887753909992609_"  style="overflow:visible;fill:none;stroke:#54293A;stroke-linecap:round;stroke-linejoin:round;stroke-miterlimit:10;"/>
				</g>
			</g>
			<g>
				<g>
					<defs>
						<path id="SVGID_00000178206322386800956260000013602349764358111104_" d="M234.157,314.553
							c-3.945,5.263-6.053,11.616-9.139,17.408c-2.806,5.273-6.821,10.367-11.885,12.324c-1.288,0.49-2.567,1.009-3.785,1.648
							c-4.634,2.407-9.209,4.924-13.723,7.551c-16.909,9.758-32.999,20.944-48.05,33.368c-3.775-1.698-8.909-14.172-1.628-25.268
							l3.146,1.348c4.355-0.929,8.25-3.426,11.456-6.492c3.196-3.066,5.793-6.702,8.38-10.307
							c3.446-4.804,6.951-9.618,11.316-13.613c2.837-2.597,6.082-4.834,9.608-6.312c1.908-0.809,3.895-1.388,5.943-1.678
							c3.865-8.419,6.891-15.411,10.217-22.262C215.97,306.593,225.058,310.578,234.157,314.553z"/>
					</defs>
					<use xlink:href="#SVGID_00000178206322386800956260000013602349764358111104_"  style="overflow:visible;fill:#FFB496;"/>
					<clipPath id="SVGID_00000048465701125312262880000016167764628142221242_">
						<use xlink:href="#SVGID_00000178206322386800956260000013602349764358111104_"  style="overflow:visible;"/>
					</clipPath>
					<path style="clip-path:url(#SVGID_00000048465701125312262880000016167764628142221242_);fill:#ED7668;" d="M233.627,324.757
						c-14.564,1.048-29.445-3.026-41.444-11.346c3.954-6.015,7.907-12.03,11.861-18.046c11.089,8.479,22.178,16.957,33.268,25.436
						C235.945,322.351,234.578,323.901,233.627,324.757z"/>
					
						<use xlink:href="#SVGID_00000178206322386800956260000013602349764358111104_"  style="overflow:visible;fill:none;stroke:#54293A;stroke-linecap:round;stroke-linejoin:round;stroke-miterlimit:10;"/>
				</g>
				<g>
					<path style="fill:#FF665E;stroke:#54293A;stroke-linecap:round;stroke-linejoin:round;stroke-miterlimit:10;" d="
						M148.995,363.877c-2.646-3.14-5.913-5.753-9.791-7.701c-2.172-1.091-4.794-0.491-6.379,1.352
						c-4.092,4.761-6.547,11.035-6.688,18.023c-0.478,0.794-0.942,1.595-1.392,2.409c-5.4,9.761-6.065,21.56-1.353,31.671
						c0.025,0.055,0.051,0.109,0.077,0.164c1.776,0.457,3.62,0.649,5.505,0.457c2.052-0.208,3.754-1.695,4.334-3.674
						c1.005-3.433,2.166-6.834,3.602-10.208c4.346-3.193,8.483-6.671,12.375-10.405c0.946-0.907,1.908-1.878,2.321-3.122
						c0.41-1.238,0.222-2.584,0.03-3.874C150.866,373.812,152.154,367.625,148.995,363.877z"/>
					<path style="fill:none;stroke:#54293A;stroke-linecap:round;stroke-linejoin:round;stroke-miterlimit:10;" d="M140.283,357.056
						c-5.19,5.497-8.482,12.753-9.303,20.255c-5.255,9.77-6.169,21.777-2.452,32.23"/>
				</g>
				<g>
					<defs>
						<path id="SVGID_00000031186415261015340630000007794499308738251435_" d="M195.625,353.485
							c-16.909,9.758-32.999,20.944-48.05,33.368c-3.775-1.698-8.909-14.172-1.628-25.268l3.146,1.348
							c4.355-0.929,8.25-3.426,11.456-6.492c3.196-3.066,5.793-6.702,8.38-10.307c3.446-4.804,6.951-9.618,11.316-13.613
							c2.837-2.597,6.082-4.834,9.608-6.312c-0.989,5.333-1.109,10.926,0.24,16.15C191.131,346.394,193.048,350.199,195.625,353.485
							z"/>
					</defs>
					<use xlink:href="#SVGID_00000031186415261015340630000007794499308738251435_"  style="overflow:visible;fill:#56648F;"/>
					<clipPath id="SVGID_00000164499602213801559150000016063467913097398664_">
						<use xlink:href="#SVGID_00000031186415261015340630000007794499308738251435_"  style="overflow:visible;"/>
					</clipPath>
					<path style="clip-path:url(#SVGID_00000164499602213801559150000016063467913097398664_);fill:#FFF7F5;" d="M174.47,376.08
						c-9.307-8.466-12.951-22.626-7.903-34.943c-10.806,7.589-21.611,15.179-32.416,22.768c1.152,12.569,3.381,25.04,6.656,37.23
						C150.849,391.951,161.469,383.399,174.47,376.08z"/>
					
						<use xlink:href="#SVGID_00000031186415261015340630000007794499308738251435_"  style="overflow:visible;fill:none;stroke:#54293A;stroke-linecap:round;stroke-linejoin:round;stroke-miterlimit:10;"/>
				</g>
			</g>
		</g>
		<g>
			<path style="fill:#54293A;" d="M296.596,166.587c0.62,10.196-2.101,20.569-7.648,29.147c-2.571-3.539-3.588-8.068-3.281-12.431
				c0.307-4.363,1.87-8.571,4.044-12.367c0.693-1.211,1.464-2.403,2.514-3.321C293.275,166.696,294.646,166.07,296.596,166.587z"/>
			<g>
				<defs>
					<path id="SVGID_00000169519048506450251890000013382837706586816161_" d="M356.142,188.023
						c-13.565-7.447-28.583-12.236-43.956-14.016c-9.8-3.364-18.624-5.37-27.559-6.269c-1.927,6.522-2.796,13.355-2.099,21.08
						c8.342,1.347,16.753,2.272,26.524,3.546c14.019,6.607,31.762,1.701,45.123,9.555"/>
				</defs>
				<use xlink:href="#SVGID_00000169519048506450251890000013382837706586816161_"  style="overflow:visible;fill:#FFB496;"/>
				<clipPath id="SVGID_00000114792338229336197800000005417812794966278029_">
					<use xlink:href="#SVGID_00000169519048506450251890000013382837706586816161_"  style="overflow:visible;"/>
				</clipPath>
				<path style="clip-path:url(#SVGID_00000114792338229336197800000005417812794966278029_);fill:#FFCCB0;" d="M303.013,166.304
					c-3.851,2.356-6.827,6.109-8.243,10.396c5.027,0.491,9.983,1.71,15.387,3.512c15.921,2.488,31.842,4.976,47.763,7.464
					c-5.776-8.936-14.573-15.881-24.606-19.424C323.282,164.709,310.88,161.492,303.013,166.304z"/>
				
					<use xlink:href="#SVGID_00000169519048506450251890000013382837706586816161_"  style="overflow:visible;fill:none;stroke:#54293A;stroke-linecap:round;stroke-linejoin:round;stroke-miterlimit:10;"/>
			</g>
			<path style="fill:#FFB496;stroke:#54293A;stroke-linecap:round;stroke-linejoin:round;stroke-miterlimit:10;" d="
				M353.594,199.588c-0.73,1.662-1.282,3.402-1.744,5.418c-0.287,1.249-0.075,2.548,0.495,3.696
				c1.302,2.622,1.869,5.617,1.677,8.556c-0.079,1.206,0.902,2.219,2.11,2.252l0.04,0.001c0.93,0.025,1.766-0.562,2.054-1.447
				c0.255-0.782,0.514-1.586,0.788-2.451c0.307-0.973,0.346-2.038-0.004-2.996c-0.605-1.656-0.633-3.459-0.106-4.706
				c4.681-0.326,9.417,0.144,14.692,1.724c4.071,3.298,9.111,5.381,14.376,5.703c0.877,0.054,1.69-0.466,1.986-1.293l0.011-0.031
				c0.359-1.004-0.154-2.108-1.155-2.476c-3.764-1.384-7.247-3.561-10.138-6.679c4.759,0.646,9.593,0.738,14.643,0.057
				c1.129-0.152,1.968-1.119,1.919-2.257l-0.002-0.04c-0.05-1.159-0.999-2.078-2.159-2.083c-4.564-0.022-9.129-0.593-13.605-2.076
				c4.59-1.192,9.067-2.818,13.506-5.096c0.747-0.383,1.149-1.224,0.997-2.05l-0.006-0.033c-0.198-1.08-1.262-1.788-2.328-1.524
				c-4.333,1.073-8.753,1.708-13.061,1.783c3.062-2.044,6.124-4.088,9.207-6.329c0.814-0.592,1.019-1.727,0.471-2.571l-0.008-0.012
				c-0.564-0.867-1.713-1.113-2.596-0.574c-3.185,1.944-6.526,3.688-10.17,5.26c-6.748,0.698-13.552,0.852-20.325,0.462"/>
		</g>
		<g>
			<path style="fill:#56648F;stroke:#54293A;stroke-linecap:round;stroke-linejoin:round;stroke-miterlimit:10;" d="
				M241.919,251.539c15.282,0.642,29.74,2.31,45.728,6.97c0.28,2.732-0.116,6.856-1.189,9.409l-53.183-9.603L241.919,251.539z"/>
			<g>
				<g>
					<defs>
						<path id="SVGID_00000000927331050871200050000004224274737646244025_" d="M290.628,322.618
							c-14.882,1.778-30.248-0.695-43.822-7.051c-1.996,3.268-3.837,6.375-5.679,9.481c-15.34-2.939-29.174-9.263-40.649-18.533
							c3.657-17.598,9.986-34.194,17.805-50.056c22.604-1.121,45.546,1.928,69.167,9.527c-0.028,6.411-0.055,12.822,0.025,19.882
							C288.595,297.671,289.715,309.472,290.628,322.618z"/>
					</defs>
					<use xlink:href="#SVGID_00000000927331050871200050000004224274737646244025_"  style="overflow:visible;fill:#237FC4;"/>
					<clipPath id="SVGID_00000085945874888883363050000011531032608788597418_">
						<use xlink:href="#SVGID_00000000927331050871200050000004224274737646244025_"  style="overflow:visible;"/>
					</clipPath>
					<g style="clip-path:url(#SVGID_00000085945874888883363050000011531032608788597418_);">
						<path style="fill:#FFC336;" d="M294.01,316.744c-15.078,2.219-30.773,0.073-44.702-6.113
							c-1.288,2.649-2.575,5.298-3.863,7.947c13.359,7.246,28.642,10.844,43.837,10.545c0.767-0.015,1.633-0.086,2.119-0.68
							c0.365-0.446,0.408-1.066,0.434-1.641C292.013,322.968,292.189,319.133,294.01,316.744z"/>
						<path style="fill:#FFC336;" d="M242.514,329.456c1.532-3.064,3.063-6.129,4.507-9.481
							c-16.947-3.782-33.071-11.208-46.96-21.628c-0.706,3.521-2.313,6.858-4.628,9.604c5.396,6.784,12.911,11.647,20.9,15.009
							C224.323,326.322,232.825,328.273,242.514,329.456z"/>
					</g>
					<path style="clip-path:url(#SVGID_00000085945874888883363050000011531032608788597418_);fill:#289DD4;" d="M248.634,256.201
						c5.165,1.899,10.168,4.238,15.75,7.513c4.185,2.456,6.532,7.12,6.106,11.954c-0.057,0.647-0.109,1.298-0.155,1.956
						c-8.38,5.202-17.727,8.842-27.418,10.679c12.197,0.983,24.568-0.234,37.705-2.662c1.947,7.171,2.23,14.789,0.822,22.085
						c5.587,1.191,10.075,6.361,10.47,12.059c2.031-17.212,3.127-34.535,3.28-51.866c0.012-1.325-0.009-2.742-0.754-3.838
						c-0.736-1.083-2.027-1.625-3.253-2.086C277.712,256.926,263.154,254.76,248.634,256.201z"/>
					
						<use xlink:href="#SVGID_00000000927331050871200050000004224274737646244025_"  style="overflow:visible;fill:none;stroke:#54293A;stroke-linecap:round;stroke-linejoin:round;stroke-miterlimit:10;"/>
				</g>
				<path style="fill:none;stroke:#54293A;stroke-linecap:round;stroke-linejoin:round;stroke-miterlimit:10;" d="M246.686,315.765
					c2.469-4.542,3.991-8.321,6.267-12.143c10.075-4.405,19.352-10.628,27.251-18.277"/>
				<path style="fill:none;stroke:#54293A;stroke-linecap:round;stroke-linejoin:round;stroke-miterlimit:10;" d="M262.335,308.298
					c4.221,0.773,8.566,0.869,12.817,0.284"/>
				<path style="fill:none;stroke:#54293A;stroke-linecap:round;stroke-linejoin:round;stroke-miterlimit:10;" d="M267.008,280.014
					c-12.458,6.507-26.526,9.901-40.58,9.792"/>
			</g>
		</g>
		<g>
			<path style="fill:#54293A;" d="M168.381,193.03c-1.372,3.721-1.246,8.046,0.903,11.476c3.085-0.97,6.042-3.094,7.719-5.86
				C174.162,196.688,171.24,194.846,168.381,193.03z"/>
			<g>
				<g>
					<defs>
						<path id="SVGID_00000049936825050195173090000006684591838221899933_" d="M178.107,201.45c0,0-32.46-17.043-38.7-20.718
							c-7.433-4.378-11.815-12.382-9.773-16.809c2.043-4.427,30.589-18.021,47.593-19.545l5.082,8.893
							c0,0-11.807,7.755-19.057,13.779l20.23,7.329C183.482,174.379,188.768,190.788,178.107,201.45z"/>
					</defs>
					<use xlink:href="#SVGID_00000049936825050195173090000006684591838221899933_"  style="overflow:visible;fill:#FFB496;"/>
					<clipPath id="SVGID_00000163758952311009414180000018258406161771078305_">
						<use xlink:href="#SVGID_00000049936825050195173090000006684591838221899933_"  style="overflow:visible;"/>
					</clipPath>
					<path style="clip-path:url(#SVGID_00000163758952311009414180000018258406161771078305_);fill:#FFCCB0;" d="M183.795,182.185
						c-11.566-5.104-24.871-10.034-37.013-15.08c-3.447-1.433-4.063-6.043-1.121-8.34c4.343-3.389,9.345-6.458,13.756-8.543
						c1.926-0.911,4.014-1.659,6.139-1.499c2.125,0.16,4.284,1.429,4.927,3.46c-4.299,3.512-8.348,9.471-12.813,13.494
						c7.138,1.762,13.792,2.026,20.222,5.592c0.942,0.522,1.888,1.074,2.625,1.859C182.735,175.492,182.478,179.177,183.795,182.185
						z"/>
					
						<use xlink:href="#SVGID_00000049936825050195173090000006684591838221899933_"  style="overflow:visible;fill:none;stroke:#54293A;stroke-linecap:round;stroke-linejoin:round;stroke-miterlimit:10;"/>
				</g>
				<path style="fill:none;stroke:#54293A;stroke-linecap:round;stroke-linejoin:round;stroke-miterlimit:10;" d="M153.495,163.66
					c3.579,1.248,7.158,2.497,10.736,3.745"/>
			</g>
		</g>
		<g>
			<g>
				<defs>
					<path id="SVGID_00000016037463565291086790000005361686624460699566_" d="M292.153,247.731
						c-12.65-3.838-29.262,0.784-41.78,5.031c-12.518,4.247-25.357,9.203-38.52,7.983c0.923-6.115,2.415-12.093,3.907-18.07
						c-1.788-2.615-1.952-5.948-0.279-8.039c-3.228-6.21-6.143-12.356-8.668-18.659c-13.721-2.984-25.69-6.793-37.148-11.777
						c10.313-7.411,13.269-27.442,7.188-32.222c5.21-2.079,15.421,2.105,23.086,4.164c3.538-2.738,7.184-3.653,10.801-3.893
						c3.618-0.24,7.243,0.16,10.847,0.559c9.855-5.919,21.181-10.378,33.526-13.395c5.171-1.264,10.634-0.385,15.186,2.374
						c0.159,0.096,0.319,0.195,0.481,0.295c8.633,0.495,17.203,2.064,25.366,4.339c-6.012,7.918-8.885,18.155-7.447,29.112
						c-2.805,1.428-5.825,2.433-8.792,3.535C286.897,214.551,291.41,229.561,292.153,247.731z"/>
				</defs>
				<use xlink:href="#SVGID_00000016037463565291086790000005361686624460699566_"  style="overflow:visible;fill:#FFC336;"/>
				<clipPath id="SVGID_00000008856499108180090550000011820023963824065209_">
					<use xlink:href="#SVGID_00000016037463565291086790000005361686624460699566_"  style="overflow:visible;"/>
				</clipPath>
				<path style="clip-path:url(#SVGID_00000008856499108180090550000011820023963824065209_);fill:#FFDD61;" d="M178.635,169.715
					c7.855,5.81,13.643,14.359,16.121,23.809c2.003-4.285,2.906-9.079,2.599-13.8c3.582,0.154,6.59,3.021,8.003,6.315
					c1.412,3.295,1.543,6.976,1.653,10.559c2.69-6.17,3.814-13.016,3.828-20.292c15.939-1.908,32.655,5.533,41.701,19.392
					c-4.704,13.188-13.554,24.863-24.981,32.955c12.195-5.651,23.404-13.424,33.026-23.135
					c12.233,11.901,20.144,28.152,22.296,46.304c4.733-0.331,9.55,0.642,13.784,2.784c0.534-16.902-0.718-33.859-4.423-51.066
					c-3.537-1.663-7.372-2.69-11.722-3.269c-3.985-8.674-8.911-16.916-14.662-24.534c2.619,0.533,5.088,1.782,7.069,3.576
					c-0.607-2.849-1.213-5.698-1.82-8.547c9.341-1.095,19.076,1.659,26.459,7.485c2.118-5.062,4.237-10.124,6.355-15.185
					c-10.974-5.889-23.458-8.568-35.895-9.22c-12.437-0.652-24.893,0.653-37.232,2.344
					C211.036,158.897,191.02,162.736,178.635,169.715z"/>
				<g style="clip-path:url(#SVGID_00000008856499108180090550000011820023963824065209_);">
					<path style="fill:#237FC4;" d="M208.002,209.446c0.21-4.436-0.566-7.62-0.058-9.89c12.767,0.964,25.049,7.255,33.177,17.69
						c-1.241,4.792,0.908,10.267,5.3,13.723c2.485,9.045,3.39,18.521,1.716,27.346c-2.576,0.639-5.152,1.278-7.666,1.91
						c0.995-8.532,0.593-17.226-1.351-25.819c-3.626-2.202-5.657-6.757-5.012-10.78C225.73,213.976,213.901,209.891,208.002,209.446
						z"/>
					<path style="fill:#237FC4;" d="M205.556,221.461c0.773-3.321,1.546-6.643,2.048-9.533c9.12,1.617,17.534,6.91,23.019,14.572
						c-0.808,1.502-0.909,3.366-0.268,4.946c0.641,1.58,2.013,2.846,3.752,3.351c2.28,8.641,2.375,17.85-0.228,26.619
						c-2.51,0.207-5.02,0.414-7.53,0.621c1.911-8.532,3.805-17.565,0.703-25.552c-1.295-0.371-2.389-1.382-2.859-2.644
						c-0.47-1.262-0.306-2.743,0.418-3.571c-5.187-6.249-12.719-10.504-20.749-11.72
						C204.769,219.773,205.675,220.998,205.556,221.461z"/>
				</g>
				
					<use xlink:href="#SVGID_00000016037463565291086790000005361686624460699566_"  style="overflow:visible;fill:none;stroke:#54293A;stroke-linecap:round;stroke-linejoin:round;stroke-miterlimit:10;"/>
			</g>
			<g>
				<path style="fill:none;stroke:#54293A;stroke-linecap:round;stroke-linejoin:round;stroke-miterlimit:10;" d="M202.945,180.855
					c4.25,10.296,5.902,21.653,4.761,32.733"/>
				<path style="fill:none;stroke:#54293A;stroke-linecap:round;stroke-linejoin:round;stroke-miterlimit:10;" d="M190.238,184.495
					c3.111,5.587,5.277,11.698,6.38,17.996"/>
				<path style="fill:none;stroke:#54293A;stroke-linecap:round;stroke-linejoin:round;stroke-miterlimit:10;" d="M259.522,167.313
					c7.85,10.076,14.772,20.875,20.65,32.214"/>
				<path style="fill:none;stroke:#54293A;stroke-linecap:round;stroke-linejoin:round;stroke-miterlimit:10;" d="M265.663,164.375
					c5.257,6.577,8.191,14.975,8.173,23.396"/>
				<path style="fill:none;stroke:#54293A;stroke-linecap:round;stroke-linejoin:round;stroke-miterlimit:10;" d="M277.617,178.113
					c1.231,3.661,1.222,7.727-0.025,11.383"/>
				<path style="fill:none;stroke:#54293A;stroke-linecap:round;stroke-linejoin:round;stroke-miterlimit:10;" d="M222.325,231.151
					c10.321-4.688,19.031-12.901,24.361-22.971"/>
				<path style="fill:none;stroke:#54293A;stroke-linecap:round;stroke-linejoin:round;stroke-miterlimit:10;" d="M224.261,236.973
					c3.997-0.974,7.995-1.948,11.992-2.922"/>
			</g>
			<g>
				<g>
					<path style="fill:#237FC4;" d="M255.359,195.467c-1.631-4.72-4.4-9.043-8.005-12.499c-2.08,0.328-3.552,0.815-5.069,1.609
						c3.887,3.807,6.895,8.507,8.833,13.537C252.463,197.222,253.809,196.329,255.359,195.467z"/>
					<path style="fill:#237FC4;" d="M257.298,194.246c-2.937,1.338-5.874,2.677-8.799,4.345c0.479,0.948,1.457,2.636,1.764,3.593
						c2.849-1.169,5.698-2.339,8.546-3.508C258.514,197.142,258.005,195.645,257.298,194.246z"/>
					<path style="fill:#237FC4;" d="M242.28,184.571c0.024,0.899-0.051,1.801-0.224,2.682c0.552,0.861,1.105,1.722,1.657,2.583
						c0.925-0.716,2.021-1.157,3.143-1.265C246.358,186.348,244.461,184.612,242.28,184.571z"/>
				</g>
				<path style="fill:#237FC4;" d="M269.893,190.847c-1.333-4.166-3.491-7.858-6.301-10.908c-1-1.079-2.512-1.52-3.94-1.189
					c-1.144,0.257-2.228,0.638-3.25,1.143c-1.891,0.922-2.69,3.189-1.929,5.15c1.365,3.577,3.102,6.99,4.884,9.945
					c0.891,1.487,2.596,2.264,4.304,1.963c1.265-0.224,2.496-0.553,3.665-0.977C269.418,195.226,270.572,192.963,269.893,190.847z
					 M264.238,191.13c-0.475,0.17-0.968,0.301-1.487,0.394c-0.689,0.124-1.38-0.193-1.733-0.787
					c-0.723-1.199-1.431-2.576-1.986-4.022c-0.298-0.799,0.018-1.715,0.782-2.09c0.42-0.2,0.857-0.352,1.321-0.456
					c0.577-0.138,1.189,0.045,1.585,0.482c1.144,1.234,2.016,2.72,2.553,4.409C265.549,189.914,265.084,190.824,264.238,191.13z"/>
			</g>
		</g>
		<g>
			<path style="fill:#FFB496;stroke:#54293A;stroke-linecap:round;stroke-linejoin:round;stroke-miterlimit:10;" d="
				M226.893,162.858c0.824,1.767,1.941,3.396,3.29,4.804c3.767-0.777,7.275-1.397,10.784-2.018c0.4,2.396-0.756,4.778-2.515,6.274
				c-1.759,1.496-4.03,2.244-6.284,2.748c-7.492,1.673-13.806-2.005-22.203-2.354c0.297-2.368,0.031-4.654-0.796-6.893
				C215.098,164.715,221.027,164.012,226.893,162.858z"/>
			<path style="fill:#ED7668;" d="M227.947,163.317c-1.514,3.496-3.962,6.581-7.097,8.801c-4.142-0.688-8.069-2.623-11.138-5.489
				C215.739,165.324,221.765,164.018,227.947,163.317z"/>
		</g>
		<g>
			<path style="fill:#644C75;stroke:#54293A;stroke-linecap:round;stroke-linejoin:round;stroke-miterlimit:10;" d="
				M232.272,128.721c1.18-4.582,0.52-9.611-1.803-13.733c0.983-2.207,1.603-4.223,1.607-6.457
				c-4.701-3.25-10.714-4.541-16.334-3.505"/>
			<path style="fill:#FFB496;stroke:#54293A;stroke-linecap:round;stroke-linejoin:round;stroke-miterlimit:10;" d="
				M233.748,139.481c0.591-1.743,1.963-3.236,3.703-3.834c1.74-0.598,3.813-0.226,5.145,1.044c1.147,1.094,1.666,2.713,1.772,4.294
				c0.169,2.514-0.633,5.08-2.202,7.051c-1.569,1.971-3.891,3.326-6.378,3.725"/>
			<g>
				<defs>
					<path id="SVGID_00000163071772668317557980000005173231348010892985_" d="M186.635,157.691
						c-8.11-5.62-13.101-15.475-12.831-25.339c0.27-9.863,5.793-19.431,14.199-24.598c8.406-5.167,19.436-5.774,28.359-1.561
						s15.462,13.116,17.39,23.342c5.155,4.729,6.381,12.697,4.454,19.422c-1.291,4.506-3.314,8.328-6.278,11.892
						c-3.133,3.766-7.653,6.034-12.536,6.433C207.922,168.221,196.341,164.415,186.635,157.691z"/>
				</defs>
				<use xlink:href="#SVGID_00000163071772668317557980000005173231348010892985_"  style="overflow:visible;fill:#FFB496;"/>
				<clipPath id="SVGID_00000059311092124803184700000017109600834936223929_">
					<use xlink:href="#SVGID_00000163071772668317557980000005173231348010892985_"  style="overflow:visible;"/>
				</clipPath>
				<g style="clip-path:url(#SVGID_00000059311092124803184700000017109600834936223929_);">
					<path style="fill:#FFCCB0;" d="M186.134,113.239c11.364-2.663,23.529-1.794,34.254,2.611c3.21,1.012,6.194,2.737,8.875,5.158
						c1.626,2.431,2.647,5.262,3.073,8.526c-1.815,0.687-3.506,1.702-4.966,2.981c4.251,1.233,7.432,5.014,8.848,9.208
						c1.416,4.194,1.284,8.76,0.638,13.139c3.053-4.648,4.455-10.278,4.415-15.839c-0.04-5.561-1.473-11.056-3.714-16.145
						c-2.465-5.598-6.03-10.877-11.081-14.328c-6.151-4.203-14.071-5.325-21.418-4.092
						C197.712,105.69,190.881,109.11,186.134,113.239z"/>
					<path style="fill:#FFCCB0;" d="M210.291,135.953c-3.432,0.31-6.751,1.754-9.317,4.054c3.9,1.023,7.527,3.067,10.422,5.873
						c0.536-1.677,1.076-3.378,1.152-5.137C212.624,138.984,212.18,137.13,210.291,135.953z"/>
				</g>
				
					<use xlink:href="#SVGID_00000163071772668317557980000005173231348010892985_"  style="overflow:visible;fill:none;stroke:#54293A;stroke-linecap:round;stroke-linejoin:round;stroke-miterlimit:10;"/>
			</g>
			<g>
				<defs>
					<path id="SVGID_00000098926934176293898030000005136188474641490367_" d="M220.527,107.79
						c-7.252-2.065-15.12-1.909-22.284,0.441c-7.164,2.35-13.596,6.885-18.216,12.843c5.47,10.005,7.962,21.424,7.206,32.83
						c-2.393,0.91-4.786,1.821-7.47,2.852c-3.089-3.029-6.197-6.08-8.678-9.625c-2.481-3.544-4.324-7.65-4.571-11.97
						c-0.247-4.319,1.27-8.857,4.744-11.978c-2.014-1.998-2.197-5.288-1.259-7.965c0.938-2.677,2.791-4.914,4.501-7.178
						c1.71-2.264,3.355-4.724,3.753-7.533c0.175-1.234,0.101-2.494,0.308-3.723c0.206-1.229,0.763-2.489,1.841-3.113
						c1.398-0.809,3.288-0.257,4.395,0.92c1.107,1.176,1.567,2.822,2.142,4.946c3.261-5.746,9.265-9.852,15.803-10.808
						c1.232-0.18,2.647-0.197,3.534,0.677c0.695,0.685,0.867,1.767,0.682,2.724c-0.186,0.957-0.677,1.824-0.791,2.541
						c1.855-0.727,3.231-2.31,4.399-3.924c1.168-1.614,2.235-3.347,3.776-4.61c1.541-1.263,3.721-1.983,5.557-1.208
						c1.813,0.765,2.802,2.737,3.306,4.64c0.949,3.578,0.702,7.462-0.411,11.237c1.655-1.3,4.126-1.282,5.939-0.212
						c1.812,1.071,2.981,3.043,3.386,5.108c0.405,2.065,0.112,4.217-0.497,6.232"/>
				</defs>
				<use xlink:href="#SVGID_00000098926934176293898030000005136188474641490367_"  style="overflow:visible;fill:#644C75;"/>
				<clipPath id="SVGID_00000006685998807168867100000001027298797729662624_">
					<use xlink:href="#SVGID_00000098926934176293898030000005136188474641490367_"  style="overflow:visible;"/>
				</clipPath>
				<path style="clip-path:url(#SVGID_00000006685998807168867100000001027298797729662624_);fill:#8C609E;" d="M167.737,120.51
					c3.931-4.551,7.862-9.102,11.793-13.653c0.835-0.967,1.788-2,3.056-2.163c1.268-0.163,2.691,1.177,2.087,2.303
					c2.187-2.933,5.022-5.379,8.243-7.113c1.521-0.819,3.321-1.489,4.943-0.895c1.622,0.594,2.509,3.029,1.153,4.1
					c4.514-1.665,8.642-4.367,11.975-7.836c0.982-1.022,1.976-2.161,3.343-2.539c2.311-0.639,4.734,1.362,5.256,3.702
					c0.521,2.341-0.407,4.776-1.699,6.797c3.04-0.708,6.253-1.168,9.255-0.317c3.003,0.851,5.735,3.311,6.038,6.417
					c2.9-6.191,1.605-13.897-2.507-19.359c-4.112-5.462-10.701-8.758-17.473-9.695c-6.772-0.937-13.711,0.325-20.122,2.7
					c-7.912,2.932-15.319,7.693-20.321,14.488C167.755,104.244,165.395,113.212,167.737,120.51z"/>
				
					<use xlink:href="#SVGID_00000098926934176293898030000005136188474641490367_"  style="overflow:visible;fill:none;stroke:#54293A;stroke-linecap:round;stroke-linejoin:round;stroke-miterlimit:10;"/>
			</g>
			<path style="fill:#FFB496;stroke:#54293A;stroke-linecap:round;stroke-linejoin:round;stroke-miterlimit:10;" d="
				M188.088,152.138c-2.912-0.794-6.246-0.365-8.572,1.558c-2.326,1.923-3.357,5.443-2.012,8.146
				c1.224,2.459,4.087,3.788,6.833,3.833c3.519,0.058,7.012-1.802,8.927-4.755"/>
			<g>
				<path style="fill:#644C75;stroke:#54293A;stroke-linecap:round;stroke-linejoin:round;stroke-miterlimit:10;" d="
					M203.121,122.019c-3.103-2.466-7.28-3.462-11.061-2.909c-2.612,0.382-4.795,2.308-5.432,4.866
					c-0.073,0.292-0.134,0.586-0.185,0.882C191.473,121.622,197.827,120.512,203.121,122.019z"/>
				<path style="fill:#644C75;stroke:#54293A;stroke-linecap:round;stroke-linejoin:round;stroke-miterlimit:10;" d="
					M227.451,113.459c-1.184-1.915-3.844-2.398-5.712-1.141c-0.655,0.441-1.246,0.989-1.746,1.598
					c-1.209,1.475-1.938,3.285-2.544,5.16c2.797-2.694,6.535-4.392,10.404-4.728C227.761,114.038,227.626,113.742,227.451,113.459z"
					/>
				<path style="fill:none;stroke:#54293A;stroke-linecap:round;stroke-linejoin:round;stroke-miterlimit:10;" d="M194.166,140.724
					c-1.757-2.84-1.719-6.692,0.094-9.497c1.813-2.805,5.309-4.421,8.621-3.984"/>
				<path style="fill:none;stroke:#54293A;stroke-linecap:round;stroke-linejoin:round;stroke-miterlimit:10;" d="M221.154,124.926
					c0.981-1.939,2.994-3.317,5.157-3.53c2.163-0.213,4.406,0.745,5.747,2.455"/>
				<g>
					<path style="fill:#54293A;" d="M199.337,133.509c-0.573-2.243,0.781-4.527,3.025-5.1c2.243-0.573,4.527,0.781,5.1,3.025
						c0.573,2.243-0.781,4.527-3.025,5.099C202.193,137.107,199.91,135.752,199.337,133.509z"/>
					<path style="fill:#FFFFFF;" d="M200.163,131.646c-0.219-0.856,0.298-1.728,1.154-1.946c0.856-0.219,1.728,0.298,1.946,1.154
						c0.219,0.856-0.298,1.728-1.154,1.946C201.253,133.02,200.382,132.503,200.163,131.646z"/>
				</g>
				<g>
					<path style="fill:#54293A;" d="M222.042,128.298c-0.573-2.243,0.671-4.498,2.778-5.036c2.107-0.538,4.28,0.844,4.853,3.088
						c0.573,2.244-0.671,4.498-2.778,5.037C224.787,131.924,222.615,130.542,222.042,128.298z"/>
					<path style="fill:#FFFFFF;" d="M222.794,126.455c-0.219-0.856,0.256-1.717,1.06-1.922c0.804-0.205,1.633,0.322,1.852,1.178
						c0.219,0.856-0.256,1.717-1.06,1.922C223.842,127.839,223.013,127.311,222.794,126.455z"/>
				</g>
				<path style="fill:#DB424C;stroke:#54293A;stroke-linecap:round;stroke-linejoin:round;stroke-miterlimit:10;" d="
					M219.291,144.645c0.691-1.682,2.304-2.909,4.08-3.302c1.163-0.257,2.451-0.163,3.439,0.503c0.987,0.667,1.571,1.984,1.171,3.105
					C225.006,144.868,222.032,144.784,219.291,144.645z"/>
				
					<path style="fill:none;stroke:#ED7668;stroke-width:1.0926;stroke-linecap:round;stroke-linejoin:round;stroke-miterlimit:10;" d="
					M218.405,131.385c1.221-0.038,2.443-0.076,3.821,0.161c0.738,1.536,0.899,3.342,0.445,4.985"/>
			</g>
		</g>
	</g>
	<g>
		<defs>
			
				<ellipse id="SVGID_00000056416782063268189250000001378435058196703886_" transform="matrix(0.6432 -0.7657 0.7657 0.6432 57.1606 241.4617)" cx="287.686" cy="59.393" rx="29.463" ry="29.463"/>
		</defs>
		<use xlink:href="#SVGID_00000056416782063268189250000001378435058196703886_"  style="overflow:visible;fill:#FFF7F5;"/>
		<clipPath id="SVGID_00000157295570627170655630000010836085098098583198_">
			<use xlink:href="#SVGID_00000056416782063268189250000001378435058196703886_"  style="overflow:visible;"/>
		</clipPath>
		<g style="clip-path:url(#SVGID_00000157295570627170655630000010836085098098583198_);">
			<g>
				<path style="fill:#237FC4;stroke:#54293A;stroke-linecap:round;stroke-linejoin:round;stroke-miterlimit:10;" d="M305.078,60.16
					c-3.86-5.614-9.209-10.198-15.339-13.167c-1.974,3.448-3.501,7.157-4.505,11.001c0.693,0.491,1.37,1.001,2.028,1.536
					c3.466,2.796,6.432,6.152,8.794,9.874c1.181,1.854,2.207,3.8,3.073,5.812c0.416,0.96,0.79,1.936,1.127,2.925
					c1.055,3.086,1.732,6.294,1.987,9.543c0.469-0.302,0.929-0.617,1.379-0.938c3.193-2.276,5.935-4.99,8.189-8.007
					C311.101,71.831,308.775,65.535,305.078,60.16z"/>
				<path style="fill:#237FC4;stroke:#54293A;stroke-linecap:round;stroke-linejoin:round;stroke-miterlimit:10;" d="
					M319.142,57.172c-0.031,4.685-1.004,9.335-2.821,13.68v0.003c-0.636,1.508-1.373,2.982-2.204,4.408
					c-0.699,1.193-1.47,2.355-2.308,3.476c-0.708-6.908-3.035-13.205-6.732-18.579c-3.86-5.614-9.209-10.198-15.339-13.167
					c1.543-2.695,3.366-5.236,5.422-7.563c0.025-0.032,0.054-0.063,0.079-0.091c1.612-1.813,3.369-3.495,5.255-5.025
					c0.73-0.589,1.536-1.181,2.472-1.225c1.039-0.05,1.971,0.573,2.815,1.174c3.482,2.468,7.04,5.006,9.471,8.514
					C318.125,46.927,319.183,52.122,319.142,57.172z"/>
				<g>
					<path style="fill:#FFC336;stroke:#54293A;stroke-linecap:round;stroke-linejoin:round;stroke-miterlimit:10;" d="
						M314.119,75.262c-0.266-5.838-2.08-11.61-4.952-16.72c-3.681-6.549-9.031-12.059-15.058-16.543
						c0.329-0.865,0.68-1.724,1.052-2.57c0.013-0.036,0.031-0.073,0.047-0.107c0.01,0.002,0.021,0.008,0.03,0.017
						c1.612-1.814,3.37-3.496,5.256-5.024c0.73-0.589,1.537-1.181,2.472-1.226c1.037-0.052,1.97,0.575,2.815,1.176
						c3.48,2.466,7.038,5.006,9.47,8.513c2.875,4.149,3.931,9.345,3.892,14.395c-0.033,4.683-1.006,9.335-2.821,13.679l-0.002,0.003
						C315.685,72.364,314.95,73.837,314.119,75.262z"/>
					<path style="fill:#FFFFFF;stroke:#54293A;stroke-linecap:round;stroke-linejoin:round;stroke-miterlimit:10;" d="
						M316.322,70.852v0.003c-0.636,1.508-1.373,2.982-2.204,4.408c-0.699,1.193-1.47,2.355-2.308,3.476
						c-0.708-6.908-3.035-13.205-6.732-18.579c-3.86-5.614-9.209-10.198-15.339-13.167c1.543-2.695,3.366-5.236,5.422-7.563
						c0.013-0.038,0.031-0.076,0.047-0.107c0.009,0,0.022,0.006,0.031,0.016c6.023,3.416,11.193,8.334,14.892,14.193
						C313.431,58.756,315.55,64.719,316.322,70.852z"/>
				</g>
			</g>
			<g>
				<path style="fill:#237FC4;stroke:#54293A;stroke-linecap:round;stroke-linejoin:round;stroke-miterlimit:10;" d="
					M304.593,33.143c-9.647,6.637-16.108,17.704-17.194,29.583c-3.832,1.055-7.805,1.587-11.778,1.602
					c-3.108,0.013-6.218-0.293-9.263-0.91c-0.038-0.006-0.079-0.016-0.116-0.022c-2.377-0.488-4.713-1.168-6.98-2.037
					c-0.875-0.337-1.792-0.74-2.298-1.527c-0.564-0.872-0.488-1.993-0.39-3.026c0.394-4.247,0.812-8.598,2.632-12.458
					c2.154-4.565,6.124-8.079,10.516-10.573c4.071-2.314,8.586-3.8,13.255-4.402h0.003c1.625-0.205,3.268-0.305,4.918-0.299
					c1.385,0.01,2.777,0.094,4.165,0.258C296.332,29.84,300.576,31.093,304.593,33.143z"/>
				<g>
					<path style="fill:#FFC336;stroke:#54293A;stroke-linecap:round;stroke-linejoin:round;stroke-miterlimit:10;" d="
						M287.897,29.075c-4.921,3.152-9.011,7.61-11.999,12.654c-3.829,6.464-5.922,13.853-6.788,21.315
						c-0.913,0.148-1.832,0.274-2.752,0.375c-0.038,0.006-0.079,0.009-0.116,0.013c-0.003-0.009-0.003-0.022,0-0.035
						c-2.377-0.488-4.713-1.168-6.98-2.037c-0.875-0.337-1.792-0.74-2.298-1.527c-0.564-0.872-0.488-1.993-0.39-3.026
						c0.394-4.247,0.812-8.598,2.632-12.458c2.154-4.565,6.124-8.079,10.516-10.573c4.071-2.314,8.586-3.8,13.255-4.402h0.003
						C284.604,29.17,286.247,29.069,287.897,29.075z"/>
					<path style="fill:#FFFFFF;stroke:#54293A;stroke-linecap:round;stroke-linejoin:round;stroke-miterlimit:10;" d="
						M292.062,29.333c-5.626,4.071-9.914,9.238-12.717,15.125c-2.928,6.152-4.222,13.076-3.725,19.87
						c-3.108,0.013-6.218-0.293-9.263-0.91c-0.038,0.006-0.079,0.009-0.116,0.013c-0.003-0.009-0.003-0.022,0-0.035
						c-0.057-6.924,1.615-13.863,4.836-19.996c2.871-5.472,6.974-10.289,11.898-14.026h0.003c1.625-0.205,3.268-0.305,4.918-0.299
						C289.282,29.085,290.674,29.17,292.062,29.333z"/>
				</g>
			</g>
			<g>
				<path style="fill:#237FC4;stroke:#54293A;stroke-linecap:round;stroke-linejoin:round;stroke-miterlimit:10;" d="M303.62,86.746
					c-0.053,0.28-0.142,0.551-0.277,0.809c-0.513,0.957-1.574,1.458-2.569,1.892c-4.087,1.792-8.28,3.615-12.733,3.904
					c-5.267,0.343-10.494-1.508-15.002-4.263c-4.181-2.553-7.827-5.929-10.746-9.896v-0.003c-1.011-1.382-1.936-2.837-2.764-4.348
					c-0.696-1.272-1.322-2.588-1.877-3.942c-1.7-4.162-2.705-8.68-2.865-13.397c9.921,4.943,22.329,6.067,32.968,2.433
					c3.466,2.796,5.938,5.747,8.299,9.468c1.181,1.854,2.207,3.8,3.073,5.812c0.416,0.96,0.79,1.936,1.127,2.925
					c1.055,3.086,1.732,6.294,1.987,9.543C302.711,87.382,303.17,87.067,303.62,86.746z"/>
				<g>
					<path style="fill:#FFC336;stroke:#54293A;stroke-linecap:round;stroke-linejoin:round;stroke-miterlimit:10;" d="
						M303.62,86.746c-0.053,0.28-0.142,0.551-0.277,0.809c-0.513,0.957-1.574,1.458-2.569,1.892
						c-4.087,1.792-8.28,3.615-12.733,3.904c-5.267,0.343-10.494-1.508-15.002-4.263c-4.181-2.553-7.827-5.929-10.746-9.896v-0.003
						c-1.011-1.382-1.936-2.837-2.764-4.348c5.374,2.906,11.527,4.386,17.657,4.565c7.493,0.217,14.962-1.439,21.942-4.191
						c0.416,0.96,0.79,1.936,1.127,2.925c1.055,3.086,1.732,6.294,1.987,9.543C302.711,87.382,303.17,87.067,303.62,86.746z"/>
					<path style="fill:#FFFFFF;stroke:#54293A;stroke-linecap:round;stroke-linejoin:round;stroke-miterlimit:10;" d="
						M300.255,78.141c-5.897,3.007-12.477,4.679-19.099,4.827c-6.461,0.148-12.947-1.165-18.863-3.775v-0.003
						c-1.011-1.382-1.936-2.837-2.764-4.348c-0.696-1.272-1.322-2.588-1.877-3.942c6.577,3.086,13.476,4.389,20.283,3.97
						c6.351-0.394,12.603-2.289,18.12-5.466c1.181,1.854,2.207,3.8,3.073,5.812C299.543,76.176,299.918,77.152,300.255,78.141z"/>
					<path style="opacity:0.2;fill:#54293A;" d="M252.607,59.778c6.62,12.91,21.23,21.271,35.714,20.437
						c14.485-0.834,28.039-10.814,33.135-24.399c1.099,11.48-4.414,23.362-13.89,29.935c-5.756,3.992-12.736,6.048-19.732,6.397
						c-5.457,0.272-11.061-0.497-15.929-2.978c-5.535-2.82-9.83-7.723-12.691-13.237C256.353,70.419,254.837,64.299,252.607,59.778z
						"/>
				</g>
			</g>
		</g>
		
			<use xlink:href="#SVGID_00000056416782063268189250000001378435058196703886_"  style="overflow:visible;fill:none;stroke:#54293A;stroke-linecap:round;stroke-linejoin:round;stroke-miterlimit:10;"/>
	</g>
</g>
</svg>
